# xmcd CD database file
#
# Track frame offsets:
#	150
#	14545
#	34050
#	52162
#	69187
#	90390
#	121515
#	144295
#	164734
#	189052
#	207402
#
# Disc length: 2926 seconds
#
# Revision: 0
# Processed by: cddbd v1.5.1PL0 Copyright (c) Steve Scherf et al.
# Submitted via: CDex 1.51
#
DISCID=8c0b6c0b
DTITLE=DOG HAIR DRESSERS - GATHER SHOES
DYEAR=1999
DGENRE=Rock
TTITLE0=コッペル
TTITLE1=オレンジジュース
TTITLE2=ラージ･マウス
TTITLE3=8
TTITLE4=SWIMMER
TTITLE5=遠い空(asanegi-mix)
TTITLE6=どうして君の顔はかわいいのか？
TTITLE7=トランポリン
TTITLE8=ノイズギター
TTITLE9=Girl
TTITLE10=いつでも楽しく
EXTD=YEAR: 1999.11/20
EXTT0=
EXTT1=
EXTT2=
EXTT3=
EXTT4=
EXTT5=
EXTT6=
EXTT7=
EXTT8=
EXTT9=
EXTT10=
PLAYORDER=
